<svg xmlns="http://www.w3.org/2000/svg" viewBox="0 0 32 32" width="32" height="32">
  <rect width="32" height="32" rx="6" fill="#000000"/>
  <rect x="1" y="1" width="30" height="30" rx="5" fill="none" stroke="#D4AF37" stroke-width="1" opacity="0.4"/>
  <path d="M16 6C10.48 6 6 10.48 6 16s4.48 10 10 10 10-4.48 10-10S21.52 6 16 6zm0 2c4.42 0 8 3.58 8 8 0 1.6-.47 3.1-1.28 4.35l-2.1-1.21C21.5 17.98 22 16.55 22 15c0-3.31-2.69-6-6-6-1.55 0-2.98.59-4.14 1.57L10.65 8.47A7.96 7.96 0 0116 8z" fill="#D4AF37" opacity="0.9"/>
  <text x="16" y="20.5" text-anchor="middle" font-family="serif" font-weight="700" font-size="13" fill="#D4AF37">C</text>
</svg>
